<?xml version="1.0" standalone="no"?>
<!DOCTYPE svg PUBLIC "-//W3C//DTD SVG 20010904//EN"
 "http://www.w3.org/TR/2001/REC-SVG-20010904/DTD/svg10.dtd">
<svg version="1.0" xmlns="http://www.w3.org/2000/svg"
 width="500.000000pt" height="500.000000pt" viewBox="0 0 500.000000 500.000000"
 preserveAspectRatio="xMidYMid meet">

<g transform="translate(0.000000,500.000000) scale(0.100000,-0.100000)"
fill="#000000" stroke="none">
<path d="M3600 2770 l0 -131 -30 16 c-37 19 -122 19 -160 0 -15 -8 -38 -27
-49 -41 l-21 -27 0 37 0 36 -65 0 -65 0 0 -108 c0 -126 -11 -152 -64 -152 -57
0 -66 21 -66 148 l0 112 -90 0 -90 0 0 65 0 65 -65 0 -65 0 0 -66 0 -66 -84 7
c-133 11 -201 -24 -201 -105 0 -49 28 -80 97 -110 35 -15 48 -26 46 -38 -5
-25 -41 -26 -86 -3 l-39 20 -14 -27 c-13 -25 -14 -18 -19 84 -4 93 -8 116 -25
134 -53 59 -142 66 -195 15 l-28 -27 -21 21 c-45 45 -115 53 -169 21 -39 -24
-42 -24 -42 -5 0 12 -13 15 -60 15 l-60 0 0 -175 0 -175 60 0 60 0 0 103 c0
120 11 151 56 155 55 5 64 -14 64 -144 l0 -114 60 0 60 0 0 108 c0 122 12 152
59 152 51 0 61 -24 61 -148 l0 -112 59 0 c33 0 61 5 63 10 2 7 16 5 40 -5 46
-19 128 -20 172 -1 65 27 92 90 64 151 -10 22 -71 59 -130 79 -21 6 -24 32 -4
39 7 3 31 1 52 -4 22 -4 53 -9 70 -9 l32 0 4 -92 c5 -104 21 -147 63 -166 32
-15 85 -15 120 -2 22 8 26 15 21 35 l-6 24 24 -24 c34 -34 98 -48 185 -42 79
6 117 25 136 65 13 28 19 28 39 -3 40 -61 148 -85 216 -50 17 9 30 11 30 5 0
-6 27 -10 65 -10 l65 0 0 295 0 295 -65 0 -65 0 0 -130z m-650 -257 c0 -32 3
-67 6 -79 5 -18 1 -21 -23 -20 -28 1 -28 1 -31 79 -3 77 -3 77 23 77 24 0 25
-3 25 -57z m630 29 c16 -13 22 -29 22 -57 0 -48 -28 -75 -77 -75 -38 0 -75 37
-75 75 0 12 9 34 21 49 25 31 75 35 109 8z"/>
<path d="M3767 2860 c-20 -16 -27 -30 -27 -55 0 -67 79 -95 123 -43 53 62 -31
149 -96 98z"/>
<path d="M842 2659 c-72 -28 -122 -100 -122 -175 0 -133 147 -223 278 -168 35
14 92 60 92 74 0 8 -67 40 -84 40 -8 0 -19 -7 -26 -15 -18 -22 -93 -20 -113 3
-10 10 -17 26 -17 35 0 15 15 17 125 17 140 0 138 -2 115 80 -25 90 -155 147
-248 109z m126 -96 l14 -23 -66 0 c-36 0 -66 3 -66 7 0 3 8 15 17 25 23 26 81
21 101 -9z"/>
<path d="M1533 2645 c-110 -66 -112 -239 -4 -320 45 -32 132 -35 171 -5 30 24
40 25 40 5 0 -12 13 -15 60 -15 l60 0 0 175 0 175 -60 0 c-45 0 -60 -4 -60
-14 0 -11 -8 -10 -37 5 -53 27 -119 24 -170 -6z m185 -111 c55 -61 -9 -150
-88 -123 -34 12 -50 35 -50 73 0 39 11 57 44 72 38 16 64 10 94 -22z"/>
<path d="M3995 2658 c-45 -16 -85 -47 -106 -82 l-19 -31 0 58 0 57 -59 0 c-44
0 -60 -4 -65 -16 -8 -20 -8 -248 0 -296 l7 -38 58 0 59 0 0 58 0 57 19 -31
c71 -117 275 -127 358 -17 40 53 44 137 9 197 -46 79 -166 117 -261 84z m138
-120 c9 -11 17 -35 17 -53 0 -42 -26 -73 -67 -81 -27 -5 -37 -1 -63 24 -33 34
-38 66 -14 100 32 46 93 50 127 10z"/>
<path d="M1135 2576 l64 -83 -75 -92 -75 -91 74 0 75 0 33 45 c19 24 37 45 41
45 4 0 22 -20 40 -45 l33 -44 73 -1 c39 0 72 2 72 5 0 3 -32 44 -70 91 l-71
86 27 37 c15 20 42 55 61 78 18 23 33 44 33 47 0 3 -31 6 -69 6 l-69 0 -30
-41 -30 -40 -28 40 -29 41 -72 0 -73 0 65 -84z"/>
</g>
</svg>
